HIERARCHY
ROOT Hips
{
	OFFSET 0.00000 0.00000 0.00000
	CHANNELS 6 Xposition Yposition Zposition Zrotation Yrotation Xrotation 
	JOINT LHipJoint
	{
		OFFSET 0 0 0
		CHANNELS 3 Zrotation Yrotation Xrotation
		JOINT LeftHip
		{
			OFFSET 1.36337 -1.57426 1.11036
			CHANNELS 3 Zrotation Yrotation Xrotation
			JOINT LeftKnee
			{
				OFFSET 2.38468 -6.55187 0.00000
				CHANNELS 3 Zrotation Yrotation Xrotation
				JOINT LeftAnkle
				{
					OFFSET 2.37166 -6.51609 0.00000
					CHANNELS 3 Zrotation Yrotation Xrotation
					JOINT LeftToe
					{
						OFFSET 0.29078 -0.79891 2.01393
						CHANNELS 3 Zrotation Yrotation Xrotation
						End Site
						{
							OFFSET 0.00000 -0.00000 1.07924
						}
					}
				}
			}
		}
	}
	JOINT RHipJoint
	{
		OFFSET 0 0 0
		CHANNELS 3 Zrotation Yrotation Xrotation
		JOINT RightHip
		{
			OFFSET -1.36349 -1.57426 1.11036
			CHANNELS 3 Zrotation Yrotation Xrotation
			JOINT RightKnee
			{
				OFFSET -2.29562 -6.30717 0.00000
				CHANNELS 3 Zrotation Yrotation Xrotation
				JOINT RightAnkle
				{
					OFFSET -2.40985 -6.62100 0.00000
					CHANNELS 3 Zrotation Yrotation Xrotation
					JOINT RightToe
					{
						OFFSET -0.23197 -0.63733 1.92232
						CHANNELS 3 Zrotation Yrotation Xrotation
						End Site
						{
							OFFSET -0.00000 -0.00000 1.01562
						}
					}
				}
			}
		}
	}
	JOINT lowerback
	{
		OFFSET 0 0 0
		CHANNELS 3 Zrotation Yrotation Xrotation
		JOINT Chest
		{
			OFFSET -0.08565 2.03602 -0.24562
			CHANNELS 3 Zrotation Yrotation Xrotation
			JOINT Chest2
			{
				OFFSET -0.00036 2.05693 0.00216
				CHANNELS 3 Zrotation Yrotation Xrotation
				JOINT lowerneck
				{
					OFFSET 0 0 0
					CHANNELS 3 Zrotation Yrotation Xrotation
					JOINT Neck
					{
						OFFSET -0.03664 1.69515 0.31789
						CHANNELS 3 Zrotation Yrotation Xrotation
						JOINT Head
						{
							OFFSET 0.00932 1.70181 -0.46013
							CHANNELS 3 Zrotation Yrotation Xrotation
							End Site
							{
								OFFSET 0.01243 1.77620 -0.19377
							}
						}
					}
				}
				JOINT LeftCollar
				{
					OFFSET 0 0 0
					CHANNELS 3 Zrotation Yrotation Xrotation
					JOINT LeftShoulder
					{
						OFFSET 3.74344 0.81315 -0.36647
CHANNELS 3 Zrotation Xrotation Yrotation
						JOINT LeftElbow
						{
OFFSET 0 -4.971850 -0.000000
CHANNELS 3 Zrotation Xrotation Yrotation
							JOINT LeftWrist
							{
OFFSET 0 -3.358110 0.000000
CHANNELS 3 Zrotation Xrotation Yrotation
								JOINT lhand
								{
									OFFSET 0 0 0
CHANNELS 3 Zrotation Xrotation Yrotation
									JOINT LFingers
									{
OFFSET 0 -0.622780 0.000000
CHANNELS 3 Zrotation Xrotation Yrotation
										End Site
										{
OFFSET 0 -0.502100 0.000000
										}
									}
								}
								JOINT LThumb
								{
OFFSET 0 0.000000 0.000000
CHANNELS 3 Zrotation Xrotation Yrotation
									End Site
									{
OFFSET 0 -0.509760 0.509760
									}
								}
							}
						}
					}
				}
				JOINT RightCollar
				{
					OFFSET 0 0 0
					CHANNELS 3 Zrotation Yrotation Xrotation
					JOINT RightShoulder
					{
						OFFSET -3.75385 0.50666 -0.06525
CHANNELS 3 Zrotation Xrotation Yrotation
						JOINT RightElbow
						{
OFFSET 0 -4.964930 -0.000000
CHANNELS 3 Zrotation Xrotation Yrotation
							JOINT RightWrist
							{
OFFSET 0 -3.349290 0.000000
CHANNELS 3 Zrotation Xrotation Yrotation
								JOINT rhand
								{
									OFFSET 0 0 0
CHANNELS 3 Zrotation Xrotation Yrotation
									JOINT RFingers
									{
OFFSET 0 -0.638040 0.000000
CHANNELS 3 Zrotation Xrotation Yrotation
										End Site
										{
OFFSET 0 -0.514410 0.000000
										}
									}
								}
								JOINT RThumb
								{
OFFSET 0 0.000000 0.000000
CHANNELS 3 Zrotation Xrotation Yrotation
									End Site
									{
OFFSET 0 -0.522260 0.522260
									}
								}
							}
						}
					}
				}
			}
		}
	}
}
MOTION
Frames: 5
Frame Time: 0.008333333333333333
-2.756910 10.930486 1.205150 -162.787434 -29.285636 211.338090 0.000000 0.000000 0.000000 -10.338374 17.183748 -87.904269 32.601031 15.658780 129.632458 0.676565 -19.673751 -18.989703 0.262753 -3.272456 -9.040597 0.000000 0.000000 0.000000 8.606238 -25.722840 -79.874488 -25.066564 -19.371476 104.964947 0.716586 21.250415 -8.571160 -1.873426 8.593506 -24.534133 0.514183 4.339668 58.247136 -0.805369 -0.532540 13.994421 -0.703283 -2.023772 -5.631390 1.121484 -2.377973 -37.265507 16.520395 -9.784854 20.200882 4.327488 -1.933113 14.079971 0.000000 0.000000 0.000000 112.122197 -52.527295 87.770236 7.567055 -12.847663 0.854507 65.716739 -18.409848 17.707835 0.000000 0.000000 0.000000 -7.125000 0.000000 0.000000 22.375371 -5.442976 26.398502 0.000000 0.000000 0.000000 25.250722 -76.592410 87.753140 -24.746681 -35.943050 -8.141185 -40.101812 6.236623 40.053337 0.000000 0.000000 0.000000 7.125000 0.000000 0.000000 -9.457658 77.534597 7.204820
-2.439725 10.838064 1.241770 -164.671424 -30.268449 212.548083 0.000000 0.000000 0.000000 -10.230987 16.361836 -89.381782 32.780256 15.513825 130.300040 0.692224 -20.720014 -19.620027 0.502158 -4.527150 -12.567225 0.000000 0.000000 0.000000 7.225589 -26.565955 -81.866130 -26.015018 -19.105841 107.844470 0.936512 22.518770 -7.772289 -1.578936 7.925507 -22.489233 0.050489 3.939249 56.553046 -0.706984 -0.941619 14.098441 -0.234797 -2.152773 -5.429460 0.963071 -2.739457 -37.211635 16.768113 -10.277426 20.209174 4.342169 -2.121888 14.158872 0.000000 0.000000 0.000000 114.009013 -52.136891 96.129170 6.435148 -10.983951 0.622015 63.580047 -2.979151 15.720794 0.000000 0.000000 0.000000 -7.125000 0.000000 0.000000 21.826615 -0.421233 23.777285 0.000000 0.000000 0.000000 27.479051 -76.402157 90.146335 -24.086457 -35.255099 -7.756632 -40.914565 6.781355 40.229033 0.000000 0.000000 0.000000 7.125000 0.000000 0.000000 -11.375171 77.998449 8.786874
-2.101776 10.711233 1.291354 -166.268648 -31.018466 214.188372 0.000000 0.000000 0.000000 -10.097228 16.325431 -92.138848 33.066409 15.275520 131.377683 0.727488 -21.756947 -20.383413 1.573359 -7.898173 -22.414347 0.000000 0.000000 0.000000 6.256821 -26.803506 -84.818158 -27.063465 -18.758229 111.072576 0.997542 23.378599 -8.216802 -1.683587 8.170298 -23.234292 -0.367295 3.580001 54.125524 -0.884917 -1.177057 14.079755 -0.158355 -2.152629 -5.285763 1.116950 -3.180991 -36.845239 16.793126 -11.004240 20.556359 4.167971 -2.396477 14.317387 0.000000 0.000000 0.000000 115.697621 -51.926724 104.079988 5.538767 -9.490599 0.460392 60.659127 11.652305 14.626153 0.000000 0.000000 0.000000 -7.125000 0.000000 0.000000 20.593419 3.381105 20.761825 0.000000 0.000000 0.000000 27.878759 -75.698822 90.326204 -23.956325 -35.117897 -7.681466 -42.159705 7.960332 41.160707 0.000000 0.000000 0.000000 7.125000 0.000000 0.000000 -14.189776 79.394642 11.368534
-1.767369 10.568231 1.348580 -167.712184 -31.575459 216.013235 0.000000 0.000000 0.000000 -9.786453 16.021527 -95.316125 33.407939 14.977475 132.687928 0.700628 -22.236294 -20.462072 2.493834 -9.824915 -28.413094 0.000000 0.000000 0.000000 5.717317 -27.020186 -88.365128 -28.085187 -18.350132 114.286110 0.851001 23.818902 -10.122978 -2.237484 9.333807 -26.853120 -1.063642 3.544606 51.097217 -0.708779 -1.116769 14.213486 0.304752 -2.062999 -4.819475 1.131132 -3.846949 -36.986529 16.441262 -11.960187 21.486448 3.839470 -2.745775 14.808266 0.000000 0.000000 0.000000 117.325527 -51.963217 111.405180 4.810033 -8.263083 0.348696 55.187924 27.917865 12.399834 0.000000 0.000000 0.000000 -7.125000 0.000000 0.000000 18.144662 9.625635 15.728513 0.000000 0.000000 0.000000 28.503566 -75.481576 91.099610 -23.540436 -34.673978 -7.443707 -42.377335 8.006455 41.126611 0.000000 0.000000 0.000000 7.125000 0.000000 0.000000 -14.837963 79.431061 11.899797
-1.436065 10.415940 1.405239 -169.219424 -31.734530 217.521584 0.000000 0.000000 0.000000 -10.511596 16.515263 -98.615231 33.771348 14.645961 134.108064 1.337800 -18.866381 -22.990801 2.805214 -10.371952 -30.190673 0.000000 0.000000 0.000000 5.096195 -27.469312 -91.963370 -29.093086 -17.887856 117.522685 0.646581 24.096709 -12.173650 -2.859608 10.460668 -30.485253 -1.790313 3.508000 47.556227 -0.937518 -1.198347 15.293044 0.481819 -2.050350 -4.198298 0.845468 -4.025423 -36.658637 16.942503 -12.045131 20.631342 4.031667 -2.825383 14.457289 0.000000 0.000000 0.000000 118.615762 -51.889903 114.125257 4.674137 -8.033861 0.328418 48.898502 38.331772 10.442723 0.000000 0.000000 0.000000 -7.125000 0.000000 0.000000 14.821049 14.645025 10.990131 0.000000 0.000000 0.000000 29.727197 -75.407202 92.095099 -23.129013 -34.229470 -7.210763 -42.760337 8.108147 40.475898 0.000000 0.000000 0.000000 7.125000 0.000000 0.000000 -16.233398 78.877431 12.847830
